<?xml version="1.0" encoding="UTF-8"?><svg xmlns="http://www.w3.org/2000/svg" viewBox="0 0 45.52 14.04"><g id="a"/><g id="b"><g id="c"><g><path d="M.41,2.63v-.56h3.64v.56l-1.67,.18h-.29l-1.67-.18Zm4.36,6.63c1.23,0,1.89-.75,1.89-2.72V2.06h.69V6.68c0,2.53-1.2,3.54-3.01,3.54s-2.99-.92-2.99-3.2v-1.3c0-1.21,0-2.44-.04-3.66h1.63c-.04,1.19-.04,2.42-.04,3.66v.93c0,1.95,.67,2.6,1.85,2.6ZM6.81,2.77l-1.3-.15v-.56h2.87v.56l-1.28,.15h-.3Z" style="fill:#fff;"/><path d="M9.92,10.02c.02-.54,.04-1.77,.04-2.52v-.63c0-.66-.01-.97-.04-1.45l-.85-.11v-.45l2.01-.76,.19,.12,.13,1.36v1.91c0,.74,.01,1.98,.04,2.52h-1.52Zm2.21-.49v.49h-2.96v-.49l1.21-.24h.58l1.16,.24Zm2.9-3.28v1.25c0,.77,.01,1.98,.04,2.52h-1.52c.02-.54,.04-1.75,.04-2.52v-1.14c0-.94-.24-1.25-.84-1.25-.51,0-1.05,.28-1.63,.85h-.33v-.66h.71l-.48,.28c.7-.99,1.52-1.48,2.38-1.48,1.04,0,1.63,.66,1.63,2.14Zm-.44,3.04l1.19,.24v.49h-2.97v-.49l1.2-.24h.58Z" style="fill:#fff;"/><path d="M17.24,10.02c.02-.54,.04-1.77,.04-2.52v-.57c0-.66-.01-1.03-.04-1.51l-.86-.11v-.45l2.17-.76,.19,.12-.04,1.68v1.59c0,.74,.01,1.98,.04,2.52h-1.5Zm2.21-.49v.49h-2.97v-.49l1.21-.24h.58l1.18,.24Zm-2.38-7.4c0-.51,.4-.86,.91-.86s.91,.35,.91,.86-.4,.86-.91,.86-.91-.36-.91-.86Z" style="fill:#fff;"/><path d="M20.23,2.63v-.56h3.66v.56l-1.67,.18h-.34l-1.65-.18Zm1.81,6.65v.74h-1.81v-.56l1.65-.18h.16Zm-.81-7.21h1.63c-.04,1.23-.04,2.47-.04,3.72v.73c0,1.04,0,2.28,.04,3.5h-1.63c.04-1.23,.04-2.47,.04-3.59v-.65c0-1.25,0-2.5-.04-3.72Zm5.22,5.65l-.12,2.3h-4.28v-.64h3.87l-.79,.64,.48-2.3h.84Z" style="fill:#fff;"/><path d="M29.44,6.78c.5-.16,1.3-.38,1.89-.5v.47c-.55,.13-1.23,.33-1.59,.48-.81,.32-1.04,.75-1.04,1.21,0,.62,.37,.88,.84,.88,.32,0,.54-.12,1.1-.53l.36-.27,.15,.21-.43,.45c-.65,.67-1.04,1.02-1.84,1.02-.9,0-1.59-.53-1.59-1.52,0-.76,.42-1.33,2.15-1.9Zm1.14,2.2v-2.87c0-1.12-.27-1.42-1.05-1.42-.28,0-.62,.04-1.1,.19l.66-.42-.2,.93c-.07,.58-.35,.83-.75,.83s-.62-.19-.68-.54c.14-.96,1.07-1.58,2.54-1.58,1.39,0,1.99,.61,1.99,2.17v2.62c0,.39,.13,.54,.36,.54,.16,0,.28-.09,.42-.26l.28,.24c-.29,.56-.66,.76-1.24,.76-.74,0-1.18-.45-1.23-1.19Z" style="fill:#fff;"/><path d="M33.42,9.53l1.21-.24-.45,.73c.02-.54,.04-1.77,.04-2.52V2.34l-.87-.11v-.46l2.14-.54,.18,.11-.05,1.69v2.06l.04,.16v3.87l-.21,1.05-2.03-.14v-.49Zm4.78-2.37c0-1.48-.56-2.2-1.37-2.2-.53,0-1.09,.43-1.72,1.07l-.11-.21c.69-1.17,1.48-1.71,2.42-1.71,1.29,0,2.31,1.06,2.31,2.99s-1.13,3.09-2.51,3.09c-.91,0-1.59-.47-2.18-1.71l.11-.21c.56,.73,1.06,1.08,1.64,1.08,.78,0,1.4-.7,1.4-2.19Z" style="fill:#fff;"/><path d="M40.68,9.69v-1.39h.79l.3,1.51-.63-.25v-.45c.47,.32,.91,.49,1.49,.49,.8,0,1.21-.3,1.21-.81,0-.45-.29-.7-1.06-.95l-.6-.2c-.9-.3-1.45-.84-1.45-1.7,0-.99,.81-1.82,2.29-1.82,.68,0,1.22,.18,1.79,.49l-.07,1.26h-.78l-.29-1.35,.55,.24v.38c-.41-.29-.74-.42-1.22-.42-.64,0-1.01,.28-1.01,.75,0,.43,.24,.65,1.06,.92l.47,.15c1.17,.39,1.62,.99,1.62,1.8,0,1.08-.9,1.85-2.52,1.85-.73,0-1.32-.17-1.93-.5Z" style="fill:#fff;"/></g></g></g></svg>